<?xml version="1.0" standalone="no"?>
<!DOCTYPE svg PUBLIC "-//W3C//DTD SVG 20010904//EN"
 "http://www.w3.org/TR/2001/REC-SVG-20010904/DTD/svg10.dtd">
<svg version="1.0" xmlns="http://www.w3.org/2000/svg"
 width="512.000000pt" height="512.000000pt" viewBox="0 0 512.000000 512.000000"
 preserveAspectRatio="xMidYMid meet">

<g transform="translate(0.000000,512.000000) scale(0.100000,-0.100000)"
fill="currentColor" stroke="none">
<path d="M3935 4466 c-67 -29 -105 -105 -90 -183 6 -32 37 -69 208 -240 l201
-203 -236 0 c-130 0 -271 -5 -314 -11 -250 -35 -482 -154 -660 -340 -44 -46
-273 -358 -609 -829 -297 -415 -562 -779 -590 -809 -93 -99 -227 -181 -367
-223 -70 -21 -95 -22 -565 -27 -476 -6 -492 -7 -519 -27 -53 -39 -69 -71 -69
-134 0 -63 16 -95 69 -134 27 -21 38 -21 534 -21 l507 1 96 26 c208 57 358
140 503 279 84 80 152 170 642 857 301 422 571 791 599 821 93 99 228 181 367
222 65 20 102 22 343 26 l270 5 -202 -204 c-217 -219 -224 -230 -208 -315 9
-49 69 -109 118 -118 90 -17 83 -23 469 363 311 311 358 362 363 395 17 90 22
84 -353 461 -194 194 -361 354 -379 362 -40 17 -89 17 -128 0z"/>
<path d="M415 3826 c-118 -52 -124 -224 -11 -289 15 -9 151 -14 511 -18 468
-5 493 -6 563 -27 140 -42 274 -124 367 -223 28 -30 111 -138 185 -242 108
-151 136 -185 146 -175 34 35 184 254 180 264 -3 7 -55 83 -118 169 -217 303
-404 441 -707 523 l-96 26 -495 3 c-401 2 -501 0 -525 -11z"/>
<path d="M2927 2248 c-97 -130 -167 -235 -163 -245 14 -34 227 -318 284 -377
178 -183 409 -301 656 -335 43 -6 184 -11 314 -11 l236 0 -201 -202 c-217
-219 -224 -230 -208 -315 9 -49 69 -109 118 -118 90 -17 83 -23 469 363 311
311 358 362 363 395 17 91 23 83 -363 469 -386 386 -379 380 -469 363 -49 -9
-109 -69 -118 -118 -16 -85 -9 -96 208 -315 l202 -204 -270 5 c-241 4 -278 6
-343 26 -139 41 -274 123 -367 222 -28 30 -109 135 -179 234 -71 99 -132 184
-136 188 -4 5 -19 -6 -33 -25z"/>
</g>
</svg>
