<?xml version="1.0" standalone="no"?>
<!DOCTYPE svg PUBLIC "-//W3C//DTD SVG 20010904//EN"
 "http://www.w3.org/TR/2001/REC-SVG-20010904/DTD/svg10.dtd">
<svg version="1.0" xmlns="http://www.w3.org/2000/svg"
 width="32.000000pt" height="32.000000pt" viewBox="0 0 32.000000 32.000000"
 preserveAspectRatio="xMidYMid meet">

<g transform="translate(0.000000,32.000000) scale(0.100000,-0.100000)"
fill="currentColor" stroke="none">
<path d="M56 234 c-22 -21 -22 -127 0 -148 16 -17 64 -22 64 -7 0 5 -11 12
-25 15 -23 6 -25 11 -25 65 0 68 3 71 90 71 86 0 90 -3 90 -70 0 -44 -4 -59
-16 -64 -27 -10 -36 -7 -29 14 9 27 -7 25 -35 -5 l-23 -25 23 -25 c28 -30 44
-32 35 -5 -5 16 -2 20 19 20 41 0 56 25 56 90 0 82 -10 90 -120 90 -67 0 -92
-4 -104 -16z"/>
</g>
</svg>
