<?xml version="1.0" standalone="no"?>
<!DOCTYPE svg PUBLIC "-//W3C//DTD SVG 20010904//EN"
 "http://www.w3.org/TR/2001/REC-SVG-20010904/DTD/svg10.dtd">
<svg version="1.0" xmlns="http://www.w3.org/2000/svg"
 width="512.000000pt" height="512.000000pt" viewBox="0 0 512.000000 512.000000"
 preserveAspectRatio="xMidYMid meet">

<g transform="translate(0.000000,512.000000) scale(0.100000,-0.100000)"
fill="currentColor" stroke="none">
<path d="M2215 4904 c-16 -2 -70 -9 -120 -15 -311 -37 -669 -166 -946 -340
-516 -323 -878 -825 -1033 -1434 -77 -300 -85 -707 -20 -1023 52 -254 164
-541 295 -759 219 -362 574 -687 957 -878 208 -103 374 -160 622 -212 131 -27
143 -28 430 -27 293 1 296 1 450 33 455 95 852 299 1157 594 90 87 109 123 98
187 -13 75 -69 120 -152 120 -58 0 -77 -11 -208 -124 -285 -247 -608 -403
-986 -477 -98 -20 -147 -23 -349 -23 -239 0 -295 5 -470 46 -451 106 -885 386
-1156 748 -587 783 -555 1830 78 2565 132 153 250 258 410 366 231 156 514
269 788 314 135 22 433 31 556 16 406 -50 675 -161 1061 -438 80 -58 162 -113
182 -124 67 -34 157 -51 235 -44 140 14 196 45 375 210 130 119 148 126 201
74 17 -17 42 -53 55 -80 l25 -48 0 -441 0 -441 -25 -43 c-35 -60 -87 -111
-148 -146 l-52 -30 -401 0 c-232 0 -424 4 -455 10 -63 12 -156 70 -169 105
-15 39 0 63 114 189 105 117 106 118 106 168 0 98 -79 168 -173 153 -37 -6
-56 -21 -157 -123 -64 -64 -128 -138 -143 -164 -85 -146 -71 -345 31 -451 59
-62 152 -124 238 -158 71 -29 93 -33 214 -38 74 -4 169 -6 210 -5 41 1 192 2
335 3 143 1 283 7 310 13 28 5 87 28 133 49 179 86 321 280 342 469 6 47 10
271 10 497 l0 413 -25 66 c-65 173 -170 302 -280 344 -107 41 -241 27 -353
-37 -24 -13 -95 -71 -158 -129 -176 -158 -198 -159 -384 -10 -239 190 -545
346 -849 431 -117 32 -285 63 -408 73 -103 9 -344 13 -398 6z"/>
<path d="M4280 1668 c-125 -86 -70 -280 79 -280 92 0 155 60 153 148 -1 121
-136 197 -232 132z"/>
</g>
</svg>
